<svg width="249.896" height="63.128" viewBox="0 0 249.896 63.128" xmlns="http://www.w3.org/2000/svg"><g id="svgGroup" stroke-linecap="round" fill-rule="nonzero" font-size="9pt" stroke="#002aff" stroke-width=".5" fill="#004cff" style="stroke:#002aff;stroke-width:.5;fill:#004cff"><path d="M 117.031 42.399 L 118.75 35.212 Q 120.208 38.128 123.125 40.472 A 10.796 10.796 0 0 0 130.104 42.816 A 8.443 8.443 0 0 0 136.224 40.472 A 7.727 7.727 0 0 0 138.646 34.691 Q 138.646 32.191 137.448 30.576 A 9.871 9.871 0 0 0 134.74 28.024 Q 133.229 27.087 132.344 26.67 L 126.615 23.753 Q 125.26 23.024 123.255 21.722 Q 121.25 20.42 119.74 18.128 Q 118.229 15.837 118.229 12.191 A 12.097 12.097 0 0 1 119.87 5.889 A 11.465 11.465 0 0 1 124.453 1.566 A 14.164 14.164 0 0 1 131.198 0.003 Q 134.948 0.003 137.813 1.331 A 19.086 19.086 0 0 1 142.292 4.066 L 140.573 11.253 A 14.662 14.662 0 0 0 136.719 7.139 Q 134.167 5.212 130.938 5.212 Q 127.813 5.212 125.938 7.06 Q 124.063 8.909 124.063 11.618 A 5.786 5.786 0 0 0 125.026 15.055 Q 125.99 16.409 127.214 17.191 Q 128.438 17.972 129.219 18.389 L 135.052 21.305 Q 136.094 21.826 137.682 22.764 A 16.501 16.501 0 0 1 140.833 25.238 A 12.895 12.895 0 0 1 143.437 28.988 Q 144.479 31.201 144.479 34.326 Q 144.479 38.337 142.578 41.462 A 13.393 13.393 0 0 1 137.396 46.357 A 15.541 15.541 0 0 1 129.896 48.128 A 16.702 16.702 0 0 1 122.37 46.462 A 16.03 16.03 0 0 1 117.031 42.399 Z M 157.396 63.128 L 151.302 63.128 L 161.458 42.92 L 148.229 16.253 L 154.583 16.253 L 161.25 29.795 Q 162.135 31.618 162.969 33.389 A 39.46 39.46 0 0 1 164.635 37.659 A 57.345 57.345 0 0 1 166.328 33.363 A 61.431 61.431 0 0 1 168.073 29.795 L 174.844 16.253 L 180.833 16.253 L 157.396 63.128 Z M 192.083 47.503 L 186.458 47.503 L 186.458 16.253 L 191.667 16.253 L 191.667 21.305 A 11.65 11.65 0 0 1 196.12 17.087 A 12.369 12.369 0 0 1 202.031 15.628 Q 205.365 15.628 208.203 17.269 Q 211.042 18.909 212.813 22.008 Q 214.583 25.107 214.583 29.534 L 214.583 47.503 L 208.958 47.503 L 208.958 30.316 A 10.334 10.334 0 0 0 206.745 23.779 A 7.439 7.439 0 0 0 200.521 20.941 A 8.423 8.423 0 0 0 194.661 23.31 Q 192.083 25.68 192.083 30.159 L 192.083 47.503 Z M 15.365 47.503 L 0 47.503 L 0 0.628 L 15.365 0.628 Q 21.719 0.628 26.432 2.712 Q 31.146 4.795 34.219 8.232 A 23.267 23.267 0 0 1 38.802 15.81 Q 40.313 19.951 40.313 24.066 A 23.955 23.955 0 0 1 38.802 32.321 A 23.267 23.267 0 0 1 34.219 39.899 Q 31.146 43.337 26.432 45.42 Q 21.719 47.503 15.365 47.503 Z M 5.938 5.941 L 5.938 42.191 L 14.74 42.191 A 22.147 22.147 0 0 0 23.621 40.602 A 14.822 14.822 0 0 0 23.854 40.498 Q 27.552 38.805 29.844 36.071 A 17.414 17.414 0 0 0 33.151 30.159 A 19.995 19.995 0 0 0 34.167 24.066 Q 34.167 21.149 33.151 17.972 Q 32.135 14.795 29.844 12.06 Q 27.552 9.326 23.854 7.633 A 21.7 21.7 0 0 0 14.908 5.941 A 34.415 34.415 0 0 0 14.74 5.941 L 5.938 5.941 Z M 77.917 31.149 L 77.917 33.441 L 57.5 33.441 A 37.367 37.367 0 0 1 54.74 33.337 A 35.296 35.296 0 0 1 51.979 33.024 A 11.014 11.014 0 0 0 55.755 40.003 Q 58.958 42.816 63.385 42.816 A 11.599 11.599 0 0 0 68.906 41.462 Q 71.458 40.107 73.021 37.868 L 74.583 44.274 A 16.949 16.949 0 0 1 69.453 47.113 A 18.327 18.327 0 0 1 63.333 48.128 Q 58.438 48.128 54.557 45.941 Q 50.677 43.753 48.464 39.977 Q 46.25 36.201 46.25 31.566 Q 46.25 27.139 48.385 23.519 Q 50.521 19.899 54.141 17.764 A 15.444 15.444 0 0 1 62.135 15.628 A 15.654 15.654 0 0 1 70.052 17.685 Q 73.646 19.743 75.781 23.232 A 14.861 14.861 0 0 1 77.917 31.149 Z M 57.5 28.753 L 67.865 28.753 Q 69.01 28.753 70.13 28.831 A 108.22 108.22 0 0 1 72.396 29.014 A 10.087 10.087 0 0 0 68.75 22.998 A 10.207 10.207 0 0 0 62.135 20.628 A 9.769 9.769 0 0 0 55.469 23.154 Q 52.604 25.68 51.823 29.222 Q 54.635 28.753 57.5 28.753 Z M 249.896 20.003 L 248.177 27.087 Q 246.875 24.482 244.245 22.712 A 10.432 10.432 0 0 0 238.281 20.941 A 10.476 10.476 0 0 0 232.786 22.425 Q 230.313 23.909 228.854 26.383 A 10.619 10.619 0 0 0 227.396 31.878 A 10.66 10.66 0 0 0 228.854 37.347 Q 230.313 39.847 232.786 41.331 Q 235.26 42.816 238.281 42.816 A 10.66 10.66 0 0 0 244.245 41.097 Q 246.875 39.378 248.177 36.67 L 249.896 43.753 Q 247.656 45.732 244.688 46.93 Q 241.719 48.128 238.333 48.128 Q 233.75 48.128 230 45.941 A 16.773 16.773 0 0 1 224.01 40.055 A 15.482 15.482 0 0 1 221.771 31.878 Q 221.771 27.399 224.01 23.701 Q 226.25 20.003 230 17.816 Q 233.75 15.628 238.333 15.628 Q 241.719 15.628 244.688 16.826 A 17.906 17.906 0 0 1 249.896 20.003 Z M 112.604 16.253 L 96.823 49.066 L 81.042 16.253 L 87.448 16.253 L 93.802 29.795 Q 94.688 31.618 95.469 33.389 A 33.995 33.995 0 0 1 96.979 37.712 Q 97.76 35.159 98.568 33.363 A 223.224 223.224 0 0 1 100.208 29.795 L 106.615 16.253 L 112.604 16.253 Z"/></g></svg>